<svg width="1280" height="720" xmlns="http://www.w3.org/2000/svg" xmlns:xlink="http://www.w3.org/1999/xlink" overflow="hidden"><defs><clipPath id="clip0"><rect x="0" y="0" width="1280" height="720"/></clipPath></defs><g clip-path="url(#clip0)"><rect x="0" y="0" width="1280" height="720" fill="#FFFFFF"/><text font-family="Consolas,Consolas_MSFontService,sans-serif" font-weight="400" font-size="9" transform="translate(94.2055 319)">architecture: x86_64</text><text font-family="Consolas,Consolas_MSFontService,sans-serif" font-weight="400" font-size="9" transform="translate(94.2055 330)">config:</text><text font-family="Consolas,Consolas_MSFontService,sans-serif" font-weight="400" font-size="9" transform="translate(104.539 341)">image.architecture</text><text font-family="Consolas,Consolas_MSFontService,sans-serif" font-weight="400" font-size="9" transform="translate(197.539 341)">: amd64</text><text font-family="Consolas,Consolas_MSFontService,sans-serif" font-weight="400" font-size="9" transform="translate(104.539 352)">image.description</text><text font-family="Consolas,Consolas_MSFontService,sans-serif" font-weight="400" font-size="9" transform="translate(192.372 352)">: ubuntu 22.04 LTS amd64 (release) (20230416)</text><text font-family="Consolas,Consolas_MSFontService,sans-serif" font-weight="400" font-size="9" transform="translate(104.539 364)">image.label</text><text font-family="Consolas,Consolas_MSFontService,sans-serif" font-weight="400" font-size="9" transform="translate(161.372 364)">: release</text><text font-family="Consolas,Consolas_MSFontService,sans-serif" font-weight="400" font-size="9" transform="translate(104.539 375)">image.os</text><text font-family="Consolas,Consolas_MSFontService,sans-serif" font-weight="400" font-size="9" transform="translate(145.872 375)">: ubuntu</text><text font-family="Consolas,Consolas_MSFontService,sans-serif" font-weight="400" font-size="9" transform="translate(104.539 386)">image.release</text><text font-family="Consolas,Consolas_MSFontService,sans-serif" font-weight="400" font-size="9" transform="translate(171.705 386)">:</text><text font-family="Consolas,Consolas_MSFontService,sans-serif" font-weight="400" font-size="9" transform="translate(182.039 386)">jammy</text><text font-family="Consolas,Consolas_MSFontService,sans-serif" font-weight="400" font-size="9" transform="translate(104.539 397)">image.serial</text><text font-family="Consolas,Consolas_MSFontService,sans-serif" font-weight="400" font-size="9" transform="translate(166.539 397)">: "20230416"</text><text font-family="Consolas,Consolas_MSFontService,sans-serif" font-weight="400" font-size="9" transform="translate(104.539 408)">image.type</text><text font-family="Consolas,Consolas_MSFontService,sans-serif" font-weight="400" font-size="9" transform="translate(156.205 408)">:</text><text font-family="Consolas,Consolas_MSFontService,sans-serif" font-weight="400" font-size="9" transform="translate(166.539 408)">squashfs</text><text font-family="Consolas,Consolas_MSFontService,sans-serif" font-weight="400" font-size="9" transform="translate(104.539 420)">image.version</text><text font-family="Consolas,Consolas_MSFontService,sans-serif" font-weight="400" font-size="9" transform="translate(171.705 420)">: "22.04"</text><text font-family="Consolas,Consolas_MSFontService,sans-serif" font-weight="400" font-size="9" transform="translate(104.539 431)">limits.cpu.allowance</text><text font-family="Consolas,Consolas_MSFontService,sans-serif" font-weight="400" font-size="9" transform="translate(207.872 431)">: 50%</text><text font-family="Consolas,Consolas_MSFontService,sans-serif" font-weight="400" font-size="9" transform="translate(104.539 442)">limits.memory</text><text font-family="Consolas,Consolas_MSFontService,sans-serif" font-weight="400" font-size="9" transform="translate(171.705 442)">: 1024MiB</text><text font-family="Consolas,Consolas_MSFontService,sans-serif" font-weight="400" font-size="9" transform="translate(104.539 453)">volatile.base_image</text><text font-family="Consolas,Consolas_MSFontService,sans-serif" font-weight="400" font-size="9" transform="translate(202.705 453)">: 93c0779033c9e7e41449934efca1c1faa8097f102b9f5c08a6401102d0b3615b</text><text font-family="Consolas,Consolas_MSFontService,sans-serif" font-weight="400" font-size="9" transform="translate(104.539 464)">volatile.cloud</text><text font-family="Consolas,Consolas_MSFontService,sans-serif" font-weight="400" font-size="9" transform="translate(176.872 464)">-</text><text font-family="Consolas,Consolas_MSFontService,sans-serif" font-weight="400" font-size="9" transform="translate(182.039 464)">init.instance</text><text font-family="Consolas,Consolas_MSFontService,sans-serif" font-weight="400" font-size="9" transform="translate(249.205 464)">-</text><text font-family="Consolas,Consolas_MSFontService,sans-serif" font-weight="400" font-size="9" transform="translate(254.372 464)">id: 0c0c5306</text><text font-family="Consolas,Consolas_MSFontService,sans-serif" font-weight="400" font-size="9" transform="translate(316.372 464)">-</text><text font-family="Consolas,Consolas_MSFontService,sans-serif" font-weight="400" font-size="9" transform="translate(321.539 464)">b90a</text><text font-family="Consolas,Consolas_MSFontService,sans-serif" font-weight="400" font-size="9" transform="translate(342.205 464)">-</text><text font-family="Consolas,Consolas_MSFontService,sans-serif" font-weight="400" font-size="9" transform="translate(347.372 464)">4aa9</text><text font-family="Consolas,Consolas_MSFontService,sans-serif" font-weight="400" font-size="9" transform="translate(368.039 464)">-</text><text font-family="Consolas,Consolas_MSFontService,sans-serif" font-weight="400" font-size="9" transform="translate(373.205 464)">b649</text><text font-family="Consolas,Consolas_MSFontService,sans-serif" font-weight="400" font-size="9" transform="translate(393.872 464)">-</text><text font-family="Consolas,Consolas_MSFontService,sans-serif" font-weight="400" font-size="9" transform="translate(399.039 464)">c0185812c1b2</text><text font-family="Consolas,Consolas_MSFontService,sans-serif" font-weight="400" font-size="9" transform="translate(104.539 476)">volatile.eth0.host_name: vethb5f6a8b6</text><text font-family="Consolas,Consolas_MSFontService,sans-serif" font-weight="400" font-size="9" transform="translate(104.539 487)">volatile.eth0.hwaddr: 00:16:3e:d9:79:58</text><text font-family="Consolas,Consolas_MSFontService,sans-serif" font-weight="400" font-size="9" transform="translate(104.539 498)">volatile.idmap.base</text><text font-family="Consolas,Consolas_MSFontService,sans-serif" font-weight="400" font-size="9" transform="translate(202.705 498)">: "0"</text><text font-family="Consolas,Consolas_MSFontService,sans-serif" font-weight="400" font-size="9" transform="translate(104.539 509)">volatile.idmap.current</text><text font-family="Consolas,Consolas_MSFontService,sans-serif" font-weight="400" font-size="9" transform="translate(218.205 509)">:</text><text font-family="Consolas,Consolas_MSFontService,sans-serif" font-weight="400" font-size="9" transform="translate(94.2055 520)">'[{"Isuid":true,"Isgid":false,"Hostid":1000000,"Nsid":0,"Maprange":65536},{"Isuid":false,"I</text><text font-family="Consolas,Consolas_MSFontService,sans-serif" font-weight="400" font-size="9" transform="translate(94.2055 532)">sgid":true,"Hostid":1000000,"Nsid":0,"Maprange":65536}]'</text><text font-family="Consolas,Consolas_MSFontService,sans-serif" font-weight="400" font-size="9" transform="translate(104.539 543)">volatile.idmap.next</text><text font-family="Consolas,Consolas_MSFontService,sans-serif" font-weight="400" font-size="9" transform="translate(202.705 543)">:</text><text font-family="Consolas,Consolas_MSFontService,sans-serif" font-weight="400" font-size="9" transform="translate(94.2055 554)">'[{"Isuid":true,"Isgid":false,"Hostid":1000000,"Nsid":0,"Maprange":65536},{"Isuid":false,"I</text><text font-family="Consolas,Consolas_MSFontService,sans-serif" font-weight="400" font-size="9" transform="translate(94.2055 565)">sgid":true,"Hostid":1000000,"Nsid":0,"Maprange":65536}]'</text><text font-family="Consolas,Consolas_MSFontService,sans-serif" font-weight="400" font-size="9" transform="translate(104.539 576)">volatile.last_state.idmap</text><text font-family="Consolas,Consolas_MSFontService,sans-serif" font-weight="400" font-size="9" transform="translate(233.705 576)">: '[]'</text><text font-family="Consolas,Consolas_MSFontService,sans-serif" font-weight="400" font-size="9" transform="translate(104.539 588)">volatile.last_state.power</text><text font-family="Consolas,Consolas_MSFontService,sans-serif" font-weight="400" font-size="9" transform="translate(233.705 588)">: RUNNING</text><text font-family="Consolas,Consolas_MSFontService,sans-serif" font-weight="400" font-size="9" transform="translate(104.539 599)">volatile.uuid</text><text font-family="Consolas,Consolas_MSFontService,sans-serif" font-weight="400" font-size="9" transform="translate(171.705 599)">: a87e67fb</text><text font-family="Consolas,Consolas_MSFontService,sans-serif" font-weight="400" font-size="9" transform="translate(223.372 599)">-</text><text font-family="Consolas,Consolas_MSFontService,sans-serif" font-weight="400" font-size="9" transform="translate(228.539 599)">4faf</text><text font-family="Consolas,Consolas_MSFontService,sans-serif" font-weight="400" font-size="9" transform="translate(249.205 599)">-</text><text font-family="Consolas,Consolas_MSFontService,sans-serif" font-weight="400" font-size="9" transform="translate(254.372 599)">4e9e</text><text font-family="Consolas,Consolas_MSFontService,sans-serif" font-weight="400" font-size="9" transform="translate(275.039 599)">-</text><text font-family="Consolas,Consolas_MSFontService,sans-serif" font-weight="400" font-size="9" transform="translate(280.205 599)">bb16</text><text font-family="Consolas,Consolas_MSFontService,sans-serif" font-weight="400" font-size="9" transform="translate(300.872 599)">-</text><text font-family="Consolas,Consolas_MSFontService,sans-serif" font-weight="400" font-size="9" transform="translate(306.039 599)">53fcd85feb51</text><text font-family="Consolas,Consolas_MSFontService,sans-serif" font-weight="400" font-size="9" transform="translate(104.539 610)">volatile.uuid.generation</text><text font-family="Consolas,Consolas_MSFontService,sans-serif" font-weight="400" font-size="9" transform="translate(228.539 610)">: a87e67fb</text><text font-family="Consolas,Consolas_MSFontService,sans-serif" font-weight="400" font-size="9" transform="translate(280.205 610)">-</text><text font-family="Consolas,Consolas_MSFontService,sans-serif" font-weight="400" font-size="9" transform="translate(285.372 610)">4faf</text><text font-family="Consolas,Consolas_MSFontService,sans-serif" font-weight="400" font-size="9" transform="translate(306.039 610)">-</text><text font-family="Consolas,Consolas_MSFontService,sans-serif" font-weight="400" font-size="9" transform="translate(311.205 610)">4e9e</text><text font-family="Consolas,Consolas_MSFontService,sans-serif" font-weight="400" font-size="9" transform="translate(331.872 610)">-</text><text font-family="Consolas,Consolas_MSFontService,sans-serif" font-weight="400" font-size="9" transform="translate(337.039 610)">bb16</text><text font-family="Consolas,Consolas_MSFontService,sans-serif" font-weight="400" font-size="9" transform="translate(357.705 610)">-</text><text font-family="Consolas,Consolas_MSFontService,sans-serif" font-weight="400" font-size="9" transform="translate(362.872 610)">53fcd85feb51</text><text font-family="Consolas,Consolas_MSFontService,sans-serif" font-weight="400" font-size="9" transform="translate(94.2055 621)">devices: {}</text><text font-family="Consolas,Consolas_MSFontService,sans-serif" font-weight="400" font-size="9" transform="translate(94.2055 632)">ephemeral: false</text><text font-family="Consolas,Consolas_MSFontService,sans-serif" font-weight="400" font-size="9" transform="translate(94.2055 644)">profiles:</text><text font-family="Consolas,Consolas_MSFontService,sans-serif" font-weight="400" font-size="9" transform="translate(94.2055 655)">-</text><text font-family="Consolas,Consolas_MSFontService,sans-serif" font-weight="400" font-size="9" transform="translate(104.539 655)">default</text><text font-family="Consolas,Consolas_MSFontService,sans-serif" font-weight="400" font-size="9" transform="translate(94.2055 666)">stateful: false</text><text font-family="Consolas,Consolas_MSFontService,sans-serif" font-weight="400" font-size="9" transform="translate(94.2055 677)">description: ""</text><text font-family="Consolas,Consolas_MSFontService,sans-serif" font-weight="400" font-size="11" transform="translate(732.06 52)">config:</text><text font-family="Consolas,Consolas_MSFontService,sans-serif" font-weight="400" font-size="11" transform="translate(743.726 65)">size: 25GiB</text><text font-family="Consolas,Consolas_MSFontService,sans-serif" font-weight="400" font-size="11" transform="translate(743.726 78)">source: /var/lib/</text><text font-family="Consolas,Consolas_MSFontService,sans-serif" font-weight="400" font-size="11" transform="translate(842.893 78)">lxd</text><text font-family="Consolas,Consolas_MSFontService,sans-serif" font-weight="400" font-size="11" transform="translate(860.393 78)">/disks/</text><text font-family="Consolas,Consolas_MSFontService,sans-serif" font-weight="400" font-size="11" transform="translate(901.226 78)">default.img</text><text font-family="Consolas,Consolas_MSFontService,sans-serif" font-weight="400" font-size="11" transform="translate(732.06 90)">description: ""</text><text font-family="Consolas,Consolas_MSFontService,sans-serif" font-weight="400" font-size="11" transform="translate(732.06 103)">name: default</text><text font-family="Consolas,Consolas_MSFontService,sans-serif" font-weight="400" font-size="11" transform="translate(732.06 116)">driver:</text><text font-family="Consolas,Consolas_MSFontService,sans-serif" font-weight="400" font-size="11" transform="translate(778.726 116)">btrfs</text><text font-family="Consolas,Consolas_MSFontService,sans-serif" font-weight="400" font-size="11" transform="translate(732.06 129)">used_by</text><text font-family="Consolas,Consolas_MSFontService,sans-serif" font-weight="400" font-size="11" transform="translate(772.893 129)">:</text><text font-family="Consolas,Consolas_MSFontService,sans-serif" font-weight="400" font-size="11" transform="translate(732.06 142)">-</text><text font-family="Consolas,Consolas_MSFontService,sans-serif" font-weight="400" font-size="11" transform="translate(743.726 142)">/1.0/images/93c0779033c9e7e41449934efca1c1faa8097f102b9f5c08a6401102d0b3615b</text><text font-family="Consolas,Consolas_MSFontService,sans-serif" font-weight="400" font-size="11" transform="translate(732.06 154)">-</text><text font-family="Consolas,Consolas_MSFontService,sans-serif" font-weight="400" font-size="11" transform="translate(743.726 154)">/1.0/images/b7e35dcd9dc32c0593136ce561e52fb1b68058135e411529b0353a0e1f54edbd</text><text font-family="Consolas,Consolas_MSFontService,sans-serif" font-weight="400" font-size="11" transform="translate(732.06 167)">-</text><text font-family="Consolas,Consolas_MSFontService,sans-serif" font-weight="400" font-size="11" transform="translate(743.726 167)">/1.0/instances/fedora</text><text font-family="Consolas,Consolas_MSFontService,sans-serif" font-weight="400" font-size="11" transform="translate(866.226 167)">-</text><text font-family="Consolas,Consolas_MSFontService,sans-serif" font-weight="400" font-size="11" transform="translate(872.06 167)">38</text><text font-family="Consolas,Consolas_MSFontService,sans-serif" font-weight="400" font-size="11" transform="translate(732.06 180)">-</text><text font-family="Consolas,Consolas_MSFontService,sans-serif" font-weight="400" font-size="11" transform="translate(743.726 180)">/1.0/instances/fedora</text><text font-family="Consolas,Consolas_MSFontService,sans-serif" font-weight="400" font-size="11" transform="translate(866.226 180)">-</text><text font-family="Consolas,Consolas_MSFontService,sans-serif" font-weight="400" font-size="11" transform="translate(872.06 180)">cloud</text><text font-family="Consolas,Consolas_MSFontService,sans-serif" font-weight="400" font-size="11" transform="translate(732.06 193)">-</text><text font-family="Consolas,Consolas_MSFontService,sans-serif" font-weight="400" font-size="11" transform="translate(743.726 193)">/1.0/instances/ubuntu</text><text font-family="Consolas,Consolas_MSFontService,sans-serif" font-weight="400" font-size="11" transform="translate(866.226 193)">-</text><text font-family="Consolas,Consolas_MSFontService,sans-serif" font-weight="400" font-size="11" transform="translate(872.06 193)">2204</text><text font-family="Consolas,Consolas_MSFontService,sans-serif" font-weight="400" font-size="11" transform="translate(732.06 206)">-</text><text font-family="Consolas,Consolas_MSFontService,sans-serif" font-weight="400" font-size="11" transform="translate(743.726 206)">/1.0/profiles/cloud</text><text font-family="Consolas,Consolas_MSFontService,sans-serif" font-weight="400" font-size="11" transform="translate(854.56 206)">-</text><text font-family="Consolas,Consolas_MSFontService,sans-serif" font-weight="400" font-size="11" transform="translate(860.393 206)">init</text><text font-family="Consolas,Consolas_MSFontService,sans-serif" font-weight="400" font-size="11" transform="translate(732.06 218)">-</text><text font-family="Consolas,Consolas_MSFontService,sans-serif" font-weight="400" font-size="11" transform="translate(743.726 218)">/1.0/profiles/default</text><text font-family="Consolas,Consolas_MSFontService,sans-serif" font-weight="400" font-size="11" transform="translate(732.06 231)">status: Created</text><text font-family="Consolas,Consolas_MSFontService,sans-serif" font-weight="400" font-size="11" transform="translate(732.06 244)">locations:</text><text font-family="Consolas,Consolas_MSFontService,sans-serif" font-weight="400" font-size="11" transform="translate(732.06 257)">-</text><text font-family="Consolas,Consolas_MSFontService,sans-serif" font-weight="400" font-size="11" transform="translate(743.726 257)">none</text><rect x="323.5" y="158.5" width="155" height="65" stroke="#000000" stroke-width="1.33333" stroke-miterlimit="8" fill="#FFFFFF"/><text font-family="Calibri,Calibri_MSFontService,sans-serif" font-weight="400" font-size="21" transform="translate(363.03 183)">Network</text><text font-family="Consolas,Consolas_MSFontService,sans-serif" font-weight="400" font-size="24" transform="translate(361.123 211)">lxdbr</text><text font-family="Consolas,Consolas_MSFontService,sans-serif" font-weight="400" font-size="24" transform="translate(426.957 211)">0</text><rect x="902.5" y="215.5" width="155" height="64" stroke="#000000" stroke-width="1.33333" stroke-miterlimit="8" fill="#FFFFFF"/><text font-family="Calibri,Calibri_MSFontService,sans-serif" font-weight="400" font-size="21" transform="translate(946.374 239)">Storage</text><text font-family="Consolas,Consolas_MSFontService,sans-serif" font-weight="400" font-size="24" transform="translate(933.207 267)">default</text><text font-family="Consolas,Consolas_MSFontService,sans-serif" font-weight="400" font-size="11" transform="translate(136.353 52)">config:</text><text font-family="Consolas,Consolas_MSFontService,sans-serif" font-weight="400" font-size="11" transform="translate(148.02 65)">ipv4.address: 10.28.46.1/24</text><text font-family="Consolas,Consolas_MSFontService,sans-serif" font-weight="400" font-size="11" transform="translate(148.02 78)">ipv4.nat: "true"</text><text font-family="Consolas,Consolas_MSFontService,sans-serif" font-weight="400" font-size="11" transform="translate(148.02 90)">ipv6.address: fd42:d4d2:bdbd:b0f9::1/64</text><text font-family="Consolas,Consolas_MSFontService,sans-serif" font-weight="400" font-size="11" transform="translate(148.02 103)">ipv6.nat: "true"</text><text font-family="Consolas,Consolas_MSFontService,sans-serif" font-weight="400" font-size="11" transform="translate(136.353 116)">description: ""</text><text font-family="Consolas,Consolas_MSFontService,sans-serif" font-weight="400" font-size="11" transform="translate(136.353 129)">name: lxdbr0</text><text font-family="Consolas,Consolas_MSFontService,sans-serif" font-weight="400" font-size="11" transform="translate(136.353 142)">type: bridge</text><text font-family="Consolas,Consolas_MSFontService,sans-serif" font-weight="400" font-size="11" transform="translate(136.353 154)">used_by</text><text font-family="Consolas,Consolas_MSFontService,sans-serif" font-weight="400" font-size="11" transform="translate(177.187 154)">:</text><text font-family="Consolas,Consolas_MSFontService,sans-serif" font-weight="400" font-size="11" transform="translate(136.353 167)">-</text><text font-family="Consolas,Consolas_MSFontService,sans-serif" font-weight="400" font-size="11" transform="translate(148.02 167)">/1.0/instances/fedora</text><text font-family="Consolas,Consolas_MSFontService,sans-serif" font-weight="400" font-size="11" transform="translate(270.52 167)">-</text><text font-family="Consolas,Consolas_MSFontService,sans-serif" font-weight="400" font-size="11" transform="translate(276.353 167)">38</text><text font-family="Consolas,Consolas_MSFontService,sans-serif" font-weight="400" font-size="11" transform="translate(136.353 180)">-</text><text font-family="Consolas,Consolas_MSFontService,sans-serif" font-weight="400" font-size="11" transform="translate(148.02 180)">/1.0/instances/fedora</text><text font-family="Consolas,Consolas_MSFontService,sans-serif" font-weight="400" font-size="11" transform="translate(270.52 180)">-</text><text font-family="Consolas,Consolas_MSFontService,sans-serif" font-weight="400" font-size="11" transform="translate(276.353 180)">cloud</text><text font-family="Consolas,Consolas_MSFontService,sans-serif" font-weight="400" font-size="11" transform="translate(136.353 193)">-</text><text font-family="Consolas,Consolas_MSFontService,sans-serif" font-weight="400" font-size="11" transform="translate(148.02 193)">/1.0/instances/ubuntu</text><text font-family="Consolas,Consolas_MSFontService,sans-serif" font-weight="400" font-size="11" transform="translate(270.52 193)">-</text><text font-family="Consolas,Consolas_MSFontService,sans-serif" font-weight="400" font-size="11" transform="translate(276.353 193)">2204</text><text font-family="Consolas,Consolas_MSFontService,sans-serif" font-weight="400" font-size="11" transform="translate(136.353 206)">-</text><text font-family="Consolas,Consolas_MSFontService,sans-serif" font-weight="400" font-size="11" transform="translate(148.02 206)">/1.0/profiles/cloud</text><text font-family="Consolas,Consolas_MSFontService,sans-serif" font-weight="400" font-size="11" transform="translate(258.853 206)">-</text><text font-family="Consolas,Consolas_MSFontService,sans-serif" font-weight="400" font-size="11" transform="translate(264.687 206)">init</text><text font-family="Consolas,Consolas_MSFontService,sans-serif" font-weight="400" font-size="11" transform="translate(136.353 218)">-</text><text font-family="Consolas,Consolas_MSFontService,sans-serif" font-weight="400" font-size="11" transform="translate(148.02 218)">/1.0/profiles/default</text><text font-family="Consolas,Consolas_MSFontService,sans-serif" font-weight="400" font-size="11" transform="translate(136.353 231)">managed: true</text><text font-family="Consolas,Consolas_MSFontService,sans-serif" font-weight="400" font-size="11" transform="translate(136.353 244)">status: Created</text><text font-family="Consolas,Consolas_MSFontService,sans-serif" font-weight="400" font-size="11" transform="translate(136.353 257)">locations:</text><text font-family="Consolas,Consolas_MSFontService,sans-serif" font-weight="400" font-size="11" transform="translate(136.353 270)">-</text><text font-family="Consolas,Consolas_MSFontService,sans-serif" font-weight="400" font-size="11" transform="translate(148.02 270)">none</text><rect x="323.5" y="361.5" width="169" height="65" stroke="#000000" stroke-width="1.33333" stroke-miterlimit="8" fill="#FFFFFF"/><text font-family="Calibri,Calibri_MSFontService,sans-serif" font-weight="400" font-size="21" transform="translate(371.23 386)">Instance</text><text font-family="Consolas,Consolas_MSFontService,sans-serif" font-weight="400" font-size="24" transform="translate(335.064 414)">u</text><text font-family="Consolas,Consolas_MSFontService,sans-serif" font-weight="400" font-size="24" transform="translate(348.23 414)">buntu</text><text font-family="Consolas,Consolas_MSFontService,sans-serif" font-weight="400" font-size="24" transform="translate(414.064 414)">-</text><text font-family="Consolas,Consolas_MSFontService,sans-serif" font-weight="400" font-size="24" transform="translate(427.23 414)">2204</text><rect x="768.5" y="394.5" width="155" height="65" stroke="#000000" stroke-width="1.33333" stroke-miterlimit="8" fill="#FFFFFF"/><text font-family="Calibri,Calibri_MSFontService,sans-serif" font-weight="400" font-size="21" transform="translate(817.524 419)">Profile</text><text font-family="Consolas,Consolas_MSFontService,sans-serif" font-weight="400" font-size="24" transform="translate(799.597 447)">default</text><text font-family="Consolas,Consolas_MSFontService,sans-serif" font-weight="400" font-size="11" transform="translate(949.826 390)">config: {}</text><text font-family="Consolas,Consolas_MSFontService,sans-serif" font-weight="400" font-size="11" transform="translate(949.826 403)">description: Default LXD profile</text><text font-family="Consolas,Consolas_MSFontService,sans-serif" font-weight="400" font-size="11" transform="translate(949.826 416)">devices:</text><text font-family="Consolas,Consolas_MSFontService,sans-serif" font-weight="400" font-size="11" transform="translate(961.493 428)">eth0:</text><text font-family="Consolas,Consolas_MSFontService,sans-serif" font-weight="400" font-size="11" transform="translate(973.159 441)">name: eth0</text><text font-family="Consolas,Consolas_MSFontService,sans-serif" font-weight="400" font-size="11" transform="translate(973.159 454)">network: lxdbr0</text><text font-family="Consolas,Consolas_MSFontService,sans-serif" font-weight="400" font-size="11" transform="translate(973.159 467)">type:</text><text font-family="Consolas,Consolas_MSFontService,sans-serif" font-weight="400" font-size="11" transform="translate(1008.16 467)">nic</text><text font-family="Consolas,Consolas_MSFontService,sans-serif" font-weight="400" font-size="11" transform="translate(961.493 480)">root:</text><text font-family="Consolas,Consolas_MSFontService,sans-serif" font-weight="400" font-size="11" transform="translate(973.159 492)">path: /</text><text font-family="Consolas,Consolas_MSFontService,sans-serif" font-weight="400" font-size="11" transform="translate(973.159 505)">pool: default</text><text font-family="Consolas,Consolas_MSFontService,sans-serif" font-weight="400" font-size="11" transform="translate(973.159 518)">type: disk</text><text font-family="Consolas,Consolas_MSFontService,sans-serif" font-weight="400" font-size="11" transform="translate(949.826 531)">name: default</text><text font-family="Consolas,Consolas_MSFontService,sans-serif" font-weight="400" font-size="11" transform="translate(949.826 544)">used_by</text><text font-family="Consolas,Consolas_MSFontService,sans-serif" font-weight="400" font-size="11" transform="translate(990.659 544)">:</text><text font-family="Consolas,Consolas_MSFontService,sans-serif" font-weight="400" font-size="11" transform="translate(949.826 556)">-</text><text font-family="Consolas,Consolas_MSFontService,sans-serif" font-weight="400" font-size="11" transform="translate(961.493 556)">/1.0/instances/ubuntu</text><text font-family="Consolas,Consolas_MSFontService,sans-serif" font-weight="400" font-size="11" transform="translate(1083.99 556)">-</text><text font-family="Consolas,Consolas_MSFontService,sans-serif" font-weight="400" font-size="11" transform="translate(1089.83 556)">2204</text><text font-family="Consolas,Consolas_MSFontService,sans-serif" font-weight="400" font-size="11" transform="translate(949.826 569)">-</text><text font-family="Consolas,Consolas_MSFontService,sans-serif" font-weight="400" font-size="11" transform="translate(961.493 569)">/1.0/instances/fedora</text><text font-family="Consolas,Consolas_MSFontService,sans-serif" font-weight="400" font-size="11" transform="translate(1083.99 569)">-</text><text font-family="Consolas,Consolas_MSFontService,sans-serif" font-weight="400" font-size="11" transform="translate(1089.83 569)">38</text><rect x="121.5" y="29.5001" width="390" height="250" stroke="#000000" stroke-width="1.33333" stroke-miterlimit="8" fill="none"/><rect x="722.5" y="37.5001" width="476" height="258" stroke="#000000" stroke-width="1.33333" stroke-miterlimit="8" fill="none"/><rect x="755.5" y="367.5" width="397" height="224" stroke="#000000" stroke-width="1.33333" stroke-miterlimit="8" fill="none"/><rect x="81.5001" y="303.5" width="497" height="389" stroke="#000000" stroke-width="1.33333" stroke-miterlimit="8" fill="none"/><path d="M492.539 394.169 762.662 425.971 762.584 426.633 492.461 394.831ZM761.768 422.174 769.246 427.082 760.833 430.119Z"/><path d="M0.217097-0.252943 128.768 110.081 128.334 110.587-0.217097 0.252943ZM130.145 106.43 133.61 114.676 124.934 112.501Z" transform="matrix(1 0 0 -1 846.5 394.176)"/><path d="M846.437 395.23 407.601 226.207 407.84 225.585 846.677 394.608ZM407.528 230.108 401.5 223.5 410.403 222.643Z"/><path d="M406.819 362.359 406.651 358.362 407.65 358.32 407.818 362.317ZM406.526 355.365 406.358 351.368 407.357 351.326 407.525 355.323ZM406.233 348.371 406.065 344.374 407.064 344.333 407.232 348.329ZM405.939 341.377 405.772 337.381 406.771 337.339 406.939 341.335ZM405.646 334.383 405.479 330.387 406.478 330.345 406.646 334.341ZM405.353 327.389 405.186 323.393 406.185 323.351 406.352 327.348ZM405.06 320.396 404.893 316.399 405.892 316.357 406.059 320.354ZM404.767 313.402 404.6 309.405 405.599 309.363 405.766 313.36ZM404.474 306.408 404.307 302.411 405.306 302.369 405.473 306.366ZM404.181 299.414 404.013 295.417 405.013 295.376 405.18 299.372ZM403.888 292.42 403.72 288.424 404.719 288.382 404.887 292.378ZM403.595 285.426 403.427 281.43 404.426 281.388 404.594 285.384ZM403.302 278.432 403.134 274.436 404.133 274.394 404.301 278.39ZM403.009 271.438 402.841 267.442 403.84 267.4 404.008 271.397ZM402.715 264.445 402.548 260.448 403.547 260.406 403.715 264.403ZM402.422 257.451 402.255 253.454 403.254 253.412 403.422 257.409ZM402.129 250.457 401.962 246.46 402.961 246.419 403.128 250.415ZM401.836 243.463 401.669 239.467 402.668 239.425 402.835 243.421ZM401.543 236.469 401.376 232.473 402.375 232.431 402.542 236.427ZM397.839 231.661 401.5 223.5 405.832 231.326Z"/><path d="M0.071056-0.494925 4.03046 0.0735225 3.88835 1.06337-0.071056 0.494925ZM7.00001 0.499858 10.9594 1.06831 10.8173 2.05816 6.8579 1.48971ZM13.929 1.49464 17.8884 2.06309 17.7463 3.05294 13.7869 2.48449ZM20.8579 2.48943 24.8173 3.05787 24.6752 4.04772 20.7158 3.47928ZM27.7869 3.48421 31.7463 4.05266 31.6042 5.04251 27.6448 4.47406ZM34.7158 4.47899 38.6752 5.04744 38.5331 6.03729 34.5737 5.46884ZM41.6448 5.47378 45.6042 6.04222 45.4621 7.03207 41.5027 6.46363ZM48.5737 6.46856 52.5331 7.03701 52.391 8.02686 48.4316 7.45841ZM55.5027 7.46334 59.4621 8.03179 59.32 9.02164 55.3606 8.4532ZM62.4316 8.45813 66.391 9.02658 66.2489 10.0164 62.2895 9.44798ZM69.3606 9.45291 73.32 10.0214 73.1779 11.0112 69.2185 10.4428ZM76.2896 10.4477 80.249 11.0161 80.1068 12.006 76.1474 11.4375ZM83.2185 11.4425 87.1779 12.0109 87.0358 13.0008 83.0764 12.4323ZM90.1475 12.4373 94.1069 13.0057 93.9648 13.9956 90.0054 13.4271ZM97.0764 13.432 101.036 14.0005 100.894 14.9903 96.9343 14.4219ZM104.005 14.4268 107.965 14.9953 107.823 15.9851 103.863 15.4167ZM110.934 15.4216 114.894 15.9901 114.752 16.9799 110.792 16.4115ZM117.863 16.4164 121.823 16.9848 121.681 17.9747 117.721 17.4062ZM124.792 17.4112 128.752 17.9796 128.61 18.9695 124.65 18.401ZM131.721 18.406 135.681 18.9744 135.538 19.9643 131.579 19.3958ZM138.65 19.4008 142.61 19.9692 142.467 20.959 138.508 20.3906ZM145.579 20.3955 149.538 20.964 149.396 21.9538 145.437 21.3854ZM152.508 21.3903 156.467 21.9588 156.325 22.9486 152.366 22.3802ZM159.437 22.3851 163.396 22.9535 163.254 23.9434 159.295 23.375ZM166.366 23.3799 170.325 23.9483 170.183 24.9382 166.224 24.3697ZM173.295 24.3747 177.254 24.9431 177.112 25.933 173.153 25.3645ZM180.224 25.3695 184.183 25.9379 184.041 26.9277 180.082 26.3593ZM187.153 26.3642 191.112 26.9327 190.97 27.9225 187.011 27.3541ZM194.082 27.359 198.041 27.9275 197.899 28.9173 193.94 28.3489ZM201.011 28.3538 204.97 28.9222 204.828 29.9121 200.869 29.3437ZM207.94 29.3486 211.899 29.917 211.757 30.9069 207.798 30.3384ZM214.869 30.3434 218.828 30.9118 218.686 31.9017 214.726 31.3332ZM221.798 31.3382 225.757 31.9066 225.615 32.8965 221.655 32.328ZM228.726 32.3329 232.686 32.9014 232.544 33.8912 228.584 33.3228ZM235.655 33.3277 239.615 33.8962 239.473 34.886 235.513 34.3176ZM242.584 34.3225 246.544 34.8909 246.402 35.8808 242.442 35.3124ZM249.513 35.3173 253.473 35.8857 253.331 36.8756 249.371 36.3071ZM256.442 36.3121 260.402 36.8805 260.26 37.8704 256.3 37.3019ZM263.371 37.3069 267.331 37.8753 267.189 38.8652 263.229 38.2967ZM270.3 38.3016 274.26 38.8701 274.117 39.8599 270.158 39.2915ZM277.229 39.2964 281.189 39.8649 281.046 40.8547 277.087 40.2863ZM284.158 40.2912 288.117 40.8596 287.975 41.8495 284.016 41.2811ZM291.087 41.286 295.046 41.8544 294.904 42.8443 290.945 42.2758ZM298.016 42.2808 301.975 42.8492 301.833 43.8391 297.874 43.2706ZM304.945 43.2756 308.904 43.844 308.762 44.8339 304.803 44.2654ZM311.874 44.2703 315.833 44.8388 315.691 45.8286 311.732 45.2602ZM318.803 45.2651 322.762 45.8336 322.62 46.8234 318.661 46.255ZM325.732 46.2599 329.691 46.8284 329.549 47.8182 325.59 47.2498ZM332.661 47.2547 336.62 47.8231 336.478 48.813 332.519 48.2445ZM339.59 48.2495 343.549 48.8179 343.407 49.8078 339.448 49.2393ZM346.519 49.2443 350.478 49.8127 350.336 50.8026 346.377 50.2341ZM353.448 50.239 357.407 50.8075 357.265 51.7973 353.305 51.2289ZM360.377 51.2338 364.336 51.8023 364.194 52.7921 360.234 52.2237ZM367.305 52.2286 371.265 52.7971 371.123 53.7869 367.163 53.2185ZM374.234 53.2234 378.194 53.7918 378.052 54.7817 374.092 54.2132ZM381.163 54.2182 385.123 54.7866 384.981 55.7765 381.021 55.208ZM388.092 55.213 392.052 55.7814 391.91 56.7713 387.95 56.2028ZM395.021 56.2077 398.981 56.7762 398.839 57.766 394.879 57.1976ZM401.95 57.2025 405.91 57.771 405.768 58.7608 401.808 58.1924ZM408.879 58.1973 412.839 58.7657 412.696 59.7556 408.737 59.1872ZM415.808 59.1921 419.768 59.7605 419.625 60.7504 415.666 60.1819ZM422.737 60.1869 426.696 60.7553 426.554 61.7452 422.595 61.1767ZM429.666 61.1817 433.625 61.7501 433.483 62.74 429.524 62.1715ZM436.595 62.1764 440.554 62.7449 440.412 63.7347 436.453 63.1663ZM443.524 63.1712 447.483 63.7397 447.341 64.7295 443.382 64.1611ZM450.453 64.166 454.412 64.7345 454.27 65.7243 450.311 65.1559ZM457.382 65.1608 461.341 65.7292 461.199 66.7191 457.24 66.1507ZM464.311 66.1556 468.27 66.724 468.128 67.7139 464.169 67.1454ZM471.24 67.1504 475.199 67.7188 475.057 68.7087 471.098 68.1402ZM478.169 68.1451 482.128 68.7136 481.986 69.7034 478.027 69.135ZM485.098 69.1399 489.057 69.7084 488.915 70.6982 484.956 70.1298ZM492.027 70.1347 495.986 70.7032 495.844 71.693 491.885 71.1246ZM498.956 71.1295 502.915 71.6979 502.773 72.6878 498.814 72.1193ZM505.885 72.1243 509.844 72.6927 509.702 73.6826 505.743 73.1141ZM512.814 73.1191 516.773 73.6875 516.631 74.6774 512.672 74.1089ZM519.743 74.1138 523.702 74.6823 523.56 75.6721 519.601 75.1037ZM526.672 75.1086 530.631 75.6771 530.489 76.6669 526.529 76.0985ZM533.601 76.1034 537.56 76.6719 537.418 77.6617 533.458 77.0933ZM540.53 77.0982 544.489 77.6666 544.347 78.6565 540.387 78.0881ZM547.458 78.093 551.418 78.6614 551.276 79.6513 547.316 79.0828ZM554.387 79.0878 558.347 79.6562 558.205 80.6461 554.245 80.0776ZM561.316 80.0826 565.276 80.651 565.134 81.6409 561.174 81.0724ZM564.46 76.998 571.81 82.0943 563.323 84.9168Z" transform="matrix(1 0 0 -1 407.5 361.594)"/><path d="M626.5 617.167 712.924 617.167 712.924 617.833 626.5 617.833ZM711.591 613.5 719.591 617.5 711.591 621.5Z"/><path d="M626.5 663 630.5 663 630.5 664 626.5 664ZM633.5 663 637.5 663 637.5 664 633.5 664ZM640.5 663 644.5 663 644.5 664 640.5 664ZM647.5 663 651.5 663 651.5 664 647.5 664ZM654.5 663 658.5 663 658.5 664 654.5 664ZM661.5 663 665.5 663 665.5 664 661.5 664ZM668.5 663 672.5 663 672.5 664 668.5 664ZM675.5 663 679.5 663 679.5 664 675.5 664ZM682.5 663 686.5 663 686.5 664 682.5 664ZM689.5 663 693.5 663 693.5 664 689.5 664ZM696.5 663 700.5 663 700.5 664 696.5 664ZM703.5 663 707.5 663 707.5 664 703.5 664ZM710.5 663 712.924 663 712.924 664 710.5 664ZM711.591 659.5 719.591 663.5 711.591 667.5Z"/><text font-family="Calibri,Calibri_MSFontService,sans-serif" font-weight="400" font-size="16" transform="translate(743.106 622)">Direct use</text><text font-family="Calibri,Calibri_MSFontService,sans-serif" font-weight="400" font-size="16" transform="translate(743.106 668)">In</text><text font-family="Calibri,Calibri_MSFontService,sans-serif" font-weight="400" font-size="16" transform="translate(755.44 668)">d</text><text font-family="Calibri,Calibri_MSFontService,sans-serif" font-weight="400" font-size="16" transform="translate(763.773 668)">irect use</text></g></svg>